<?xml version="1.0" encoding="UTF-8"?>
<!DOCTYPE svg PUBLIC "-//W3C//DTD SVG 1.1//EN" "http://www.w3.org/Graphics/SVG/1.1/DTD/svg11.dtd">
<svg version="1.1" xmlns="http://www.w3.org/2000/svg" x="0" y="0" width="256" height="256" viewBox="0, 0, 256, 256">
  <g>
    <path d="M72,64 L184,64 C188.418,64 192,67.582 192,72 L192,72 C192,76.418 188.418,80 184,80 L72,80 C67.582,80 64,76.418 64,72 L64,72 C64,67.582 67.582,64 72,64 z" fill="#777777" fill-opacity="0.5"/>
    <path d="M72,120 L184,120 C188.418,120 192,123.582 192,128 L192,128 C192,132.418 188.418,136 184,136 L72,136 C67.582,136 64,132.418 64,128 L64,128 C64,123.582 67.582,120 72,120 z" fill="#777777" fill-opacity="0.5"/>
    <path d="M72,176 L184,176 C188.418,176 192,179.582 192,184 L192,184 C192,188.418 188.418,192 184,192 L72,192 C67.582,192 64,188.418 64,184 L64,184 C64,179.582 67.582,176 72,176 z" fill="#777777" fill-opacity="0.5"/>
  </g>
</svg>
